HIERARCHY
ROOT Hips
{
	OFFSET -0.179506 -22.333345 2.821913
	CHANNELS 6 Xposition Yposition Zposition Zrotation Yrotation Xrotation 
	JOINT LeftUpLeg
	{
		OFFSET 6.951974 -9.140623 -0.681533
		CHANNELS 3 Zrotation Yrotation Xrotation
		JOINT LeftLeg
		{
			OFFSET 3.427654 -37.519855 -0.449580
			CHANNELS 3 Zrotation Yrotation Xrotation
			JOINT LeftFoot
			{
				OFFSET -1.359570 -39.796059 -4.369333
				CHANNELS 3 Zrotation Yrotation Xrotation
				JOINT LeftToe
				{
					OFFSET 2.635814 -5.579078 11.928840
					CHANNELS 3 Zrotation Yrotation Xrotation
					End Site
					{
						OFFSET 0.000000 0.000000 0.000000
					}
				}
			}
		}
	}
	JOINT RightUpLeg
	{
		OFFSET -6.767048 -9.052170 -0.431982
		CHANNELS 3 Zrotation Yrotation Xrotation
		JOINT RightLeg
		{
			OFFSET -3.829005 -38.256897 -0.885003
			CHANNELS 3 Zrotation Yrotation Xrotation
			JOINT RightFoot
			{
				OFFSET 1.577377 -39.841461 -4.231180
				CHANNELS 3 Zrotation Yrotation Xrotation
				JOINT RightToe
				{
					OFFSET -2.537174 -4.814398 12.334795
					CHANNELS 3 Zrotation Yrotation Xrotation
					End Site
					{
						OFFSET 0.000000 0.000000 0.000000
					}
				}
			}
		}
	}
	JOINT Spine
	{
		OFFSET -0.253288 10.896323 -2.669631
		CHANNELS 3 Zrotation Yrotation Xrotation
		JOINT Spine1
		{
			OFFSET 0.548704 13.518043 0.109247
			CHANNELS 3 Zrotation Yrotation Xrotation
			JOINT Spine2
			{
				OFFSET 0.145701 5.292222 2.542457
				CHANNELS 3 Zrotation Yrotation Xrotation
				JOINT Neck
				{
					OFFSET -0.277840 21.387037 -4.285703
					CHANNELS 3 Zrotation Yrotation Xrotation
					JOINT Head
					{
						OFFSET 0.515184 6.496960 5.134897
						CHANNELS 3 Zrotation Yrotation Xrotation
						End Site
						{
							OFFSET 0.000000 0.000000 0.000000
						}
					}
				}
				JOINT LeftShoulder
				{
					OFFSET 7.884473 12.174932 -3.408961
					CHANNELS 3 Zrotation Yrotation Xrotation
					JOINT LeftArm
					{
						OFFSET 9.097692 3.046888 -0.886815
						CHANNELS 3 Zrotation Yrotation Xrotation
						JOINT LeftForeArm
						{
							OFFSET 25.961220 -1.277207 -2.745643
							CHANNELS 3 Zrotation Yrotation Xrotation
							JOINT LeftHand
							{
								OFFSET 24.923361 0.898606 -0.117091
								CHANNELS 3 Zrotation Yrotation Xrotation
								End Site
								{
									OFFSET 0.000000 0.000000 0.000000
								}
							}
						}
					}
				}
				JOINT RightShoulder
				{
					OFFSET -8.175920 11.883285 -3.861528
					CHANNELS 3 Zrotation Yrotation Xrotation
					JOINT RightArm
					{
						OFFSET -9.601238 3.255117 -0.914307
						CHANNELS 3 Zrotation Yrotation Xrotation
						JOINT RightForeArm
						{
							OFFSET -25.374195 -1.332924 -2.140099
							CHANNELS 3 Zrotation Yrotation Xrotation
							JOINT RightHand
							{
								OFFSET -25.529810 0.777228 -0.555919
								CHANNELS 3 Zrotation Yrotation Xrotation
								End Site
								{
									OFFSET 0.000000 0.000000 0.000000
								}
							}
						}
					}
				}
			}
		}
	}
}
MOTION
Frames: 11
Frame Time: 0.033333
12.974720 -175.773941 90.868950 179.710518 -0.115201 88.273593 4.087585 5.156785 5.930428 -3.651145 -0.639823 -2.925112 2.195299 11.843592 -9.903167 nan nan nan -6.153820 -4.501676 1.334315 3.610079 -2.765027 1.840097 3.522982 -6.334515 -9.262920 nan nan nan 0.419492 2.011502 6.716787 0.227934 -1.258973 1.320778 0.449206 -0.574383 -3.344419 0.789843 1.914662 -0.553360 1.648197 1.303673 6.618539 -29.053232 -3.197679 3.621587 -54.525825 -7.018142 15.394090 0.806423 -20.636973 9.998978 -4.859258 -11.485159 -0.437617 28.406333 7.156320 4.905294 55.926339 5.705129 16.373575 -5.486670 14.887474 0.234083 6.319927 6.633161 -4.310230 
12.981966 -175.823257 90.815414 179.629079 -0.149069 88.611833 4.003823 5.058429 5.451599 -3.619722 -0.581938 -2.801332 2.166727 11.921576 -9.928421 nan nan nan -6.149759 -4.444094 0.841479 3.590135 -2.750749 1.959503 3.635041 -6.374507 -9.221724 nan nan nan 0.387008 2.025615 6.334633 0.210223 -1.196690 1.348816 0.400355 -0.525776 -3.274708 0.867790 1.895903 -0.837415 1.586912 1.254238 6.861453 -28.885683 -3.144576 3.592088 -54.656826 -7.111892 15.394355 0.674861 -20.581579 9.837345 -4.564316 -11.458792 -0.666058 28.275771 7.051687 4.943109 56.117837 5.787003 16.447352 -5.492570 15.029577 0.218997 6.093184 6.603229 -4.459338 
12.981918 -175.837738 90.802795 179.644150 -0.146164 88.674930 3.994639 5.044032 5.364884 -3.609210 -0.581589 -2.788519 2.146610 11.920398 -9.916096 nan nan nan -6.139680 -4.431546 0.763254 3.589579 -2.735472 1.962357 3.654875 -6.375067 -9.232166 nan nan nan 0.387617 2.021334 6.256695 0.219216 -1.196988 1.370140 0.402542 -0.526652 -3.268207 0.878265 1.921698 -0.912670 1.579305 1.261581 6.922912 -28.868374 -3.139552 3.593773 -54.690161 -7.131711 15.398932 0.671596 -20.531478 9.853971 -4.563148 -11.454443 -0.644651 28.287941 7.024836 4.939494 56.119681 5.799888 16.454429 -5.522590 15.014604 0.226146 6.077826 6.583337 -4.420870 
12.971245 -175.845398 90.797874 179.662935 -0.153382 88.683651 3.981861 5.042152 5.340049 -3.616303 -0.567680 -2.752344 2.126293 11.911370 -9.906719 nan nan nan -6.142776 -4.427739 0.739826 3.564649 -2.747716 1.995260 3.660434 -6.384863 -9.241681 nan nan nan 0.388731 2.014934 6.229810 0.224781 -1.198811 1.385966 0.405744 -0.530137 -3.277599 0.879794 1.905370 -0.914616 1.576353 1.237451 6.936110 -28.878900 -3.125954 3.609135 -54.712685 -7.130692 15.394877 0.705918 -20.501725 9.872321 -4.618200 -11.468051 -0.603939 28.295953 7.014770 4.936901 56.126261 5.788480 16.455864 -5.538437 14.973549 0.236137 6.095623 6.582291 -4.386506 
12.955354 -175.853317 90.799591 179.662069 -0.154344 88.679355 3.965930 5.041085 5.340466 -3.591831 -0.563519 -2.745361 2.123734 11.912619 -9.915319 nan nan nan -6.137580 -4.421083 0.722281 3.526412 -2.756099 2.032748 3.654986 -6.388480 -9.251827 nan nan nan 0.389241 2.013186 6.213683 0.235920 -1.195697 1.426057 0.411634 -0.527212 -3.297137 0.885427 1.897716 -0.902418 1.577352 1.238753 6.921998 -28.916681 -3.135728 3.621352 -54.709954 -7.122458 15.372181 0.716346 -20.467009 9.814365 -4.640645 -11.497809 -0.609874 28.284576 7.033782 4.937492 56.082678 5.800739 16.429221 -5.580418 14.943029 0.176214 6.102291 6.604722 -4.357918 
13.061622 -174.980804 91.088165 -177.550197 -0.264488 87.410207 4.393715 4.541197 7.033883 -3.985904 -2.254263 -2.693548 3.173058 11.177514 -11.015677 nan nan nan -6.383661 -5.291961 4.996743 4.122630 -3.751171 -0.773677 2.190235 -7.018238 -9.861706 nan nan nan -0.748159 1.874124 4.637493 0.983453 -2.890406 5.278332 1.058884 -1.013088 -4.832925 0.642135 2.207276 1.306311 1.499101 0.520093 4.368445 -30.223221 -3.840044 3.700047 -53.929610 -6.131808 14.964889 1.341472 -20.358505 8.876305 -6.674126 -12.262971 1.241354 28.907364 6.778544 3.948010 57.470062 2.633283 14.793810 -10.460805 20.123102 -3.237747 6.281486 8.130683 -2.835016 
13.046602 -175.151978 91.190193 -177.710009 -0.311326 87.682842 4.261839 4.482998 6.508941 -4.011970 -2.096260 -2.404914 3.562316 11.241363 -11.175636 nan nan nan -6.347361 -5.069511 4.397697 4.107602 -3.896151 -0.365899 2.125814 -7.049482 -9.887390 nan nan nan -0.851304 1.967930 4.454576 1.057627 -2.883415 5.435687 1.035106 -0.962245 -5.156496 0.590856 2.291098 1.550303 1.572826 0.418113 4.171930 -30.210954 -3.839028 3.602760 -54.066111 -5.901215 15.126672 1.592515 -20.373287 8.359334 -6.843163 -12.121476 1.539486 28.926128 6.839021 4.105900 57.619370 2.146705 14.742171 -10.886742 20.750922 -3.836992 6.089277 8.099360 -2.653324 
13.071539 -175.127045 91.268379 -177.602890 -0.196897 87.487336 4.504270 4.517150 6.734203 -4.146631 -2.173651 -2.382825 3.692346 11.130336 -11.296534 nan nan nan -6.131784 -5.186125 4.812684 4.030426 -3.856050 -0.581233 2.107400 -7.079410 -9.874626 nan nan nan -0.874690 1.962798 4.462290 1.144597 -2.966090 5.641382 1.099697 -0.955401 -5.241671 0.576001 2.298040 1.664674 1.559109 0.435708 4.152081 -30.308287 -3.883325 3.763821 -54.024199 -5.811168 15.071853 1.675252 -20.542833 8.578380 -6.793852 -11.899391 1.568381 28.953814 6.913916 4.218393 57.517669 2.127215 14.719886 -10.798038 20.880172 -3.538821 6.176789 7.782698 -2.812813 
13.013927 -175.241318 91.273170 -177.600789 -0.355689 87.610090 4.273313 4.440440 6.417388 -4.172725 -2.063284 -2.181157 3.859169 11.140240 -11.371623 nan nan nan -6.342597 -5.097229 4.523360 4.088221 -3.928602 -0.368743 2.112614 -7.108873 -10.032714 nan nan nan -0.925584 2.028369 4.505790 1.043105 -2.958396 5.445683 1.063344 -1.018061 -5.190855 0.592687 2.330232 1.506828 1.580610 0.419883 4.358270 -30.140928 -3.846994 3.709062 -54.200491 -5.852680 15.118829 1.740214 -20.412968 8.654465 -6.898796 -12.020582 1.640129 28.925575 6.875873 4.181556 57.674036 2.218755 14.738642 -10.826857 20.752412 -3.578576 6.103660 7.848845 -2.760047 
12.987089 -175.207184 91.279831 -177.462754 -0.474252 87.441280 4.163459 4.431627 6.623718 -4.165633 -2.093768 -2.223415 3.850781 11.035533 -11.401751 nan nan nan -6.531942 -5.217479 4.890710 4.144169 -3.956723 -0.545921 2.105823 -7.054446 -10.057030 nan nan nan -1.050888 2.073176 4.550611 1.015817 -3.068330 5.533389 1.097696 -1.054709 -5.128898 0.576624 2.385423 1.370122 1.614453 0.392082 4.536107 -30.025773 -3.855682 3.696260 -54.324310 -5.905317 14.982631 1.720637 -20.269456 8.618921 -7.016709 -12.217506 1.688772 28.975306 6.882915 4.142173 57.706059 2.280242 14.629961 -10.880227 20.667080 -3.802232 6.158013 8.450962 -2.532894 
13.001462 -175.247864 91.318619 -177.399298 -0.335186 87.513817 4.356528 4.413100 6.426586 -4.208331 -2.047346 -2.098614 3.859861 10.974191 -11.416817 nan nan nan -6.261554 -5.215528 4.800832 4.022213 -4.061711 -0.560635 2.006412 -7.032569 -9.987817 nan nan nan -1.015604 2.047938 4.458416 1.150645 -3.166335 5.712314 1.114920 -0.998334 -5.373029 0.484104 2.361043 1.471747 1.718361 0.454255 4.568506 -30.097796 -3.853384 3.636231 -54.358664 -5.752192 15.054904 1.805066 -20.224682 8.322787 -7.111270 -12.364137 1.856101 29.083900 6.977666 4.197349 57.528895 2.084818 14.539947 -10.919368 20.923007 -4.098090 6.396598 9.530548 -2.395428 
